<svg viewBox="0 0 36 36" fill="none" xmlns="http://www.w3.org/2000/svg">
<g clip-path="url(#clip0_311_295)">
<path d="M31.5 24.012V11.985C31.4991 11.4616 31.3599 10.9478 31.0965 10.4955C30.833 10.0432 30.4548 9.66857 30 9.40951L19.5 3.39752C19.0432 3.13654 18.5261 2.99927 18 2.99927C17.4739 2.99927 16.9568 3.13654 16.5 3.39752L6 9.40951C5.0715 9.94201 4.5 10.9245 4.5 11.9865V24.0135C4.5 25.077 5.0715 26.058 6 26.589L16.5 32.601C16.9568 32.862 17.4739 32.9993 18 32.9993C18.5261 32.9993 19.0432 32.862 19.5 32.601L30 26.589C30.9285 26.0565 31.5 25.074 31.5 24.012Z" stroke="white" stroke-width="2.25" stroke-linecap="round" stroke-linejoin="round"/>
<path d="M18 33V18" stroke="white" stroke-width="2.25" stroke-linecap="round" stroke-linejoin="round"/>
<path d="M18 17.9999L31.095 10.4399" stroke="white" stroke-width="2.25" stroke-linecap="round" stroke-linejoin="round"/>
<path d="M4.90503 10.4399L18 17.9999" stroke="white" stroke-width="2.25" stroke-linecap="round" stroke-linejoin="round"/>
</g>
<defs>
<clipPath id="clip0_311_295">
<rect width="36" height="36" fill="white"/>
</clipPath>
</defs>
</svg>
