<svg viewBox="0 0 36 36" fill="none" xmlns="http://www.w3.org/2000/svg">
<g clip-path="url(#clip0_316_319)">
<path d="M27.0001 13.5C28.2781 13.5 28.9456 14.979 28.1746 15.9345L28.0606 16.0605L19.0606 25.0605C18.8023 25.3188 18.4586 25.4739 18.0941 25.4968C17.7295 25.5198 17.3692 25.4089 17.0806 25.185L16.9396 25.0605L7.93955 16.0605L7.81505 15.9195L7.73405 15.804L7.65305 15.66L7.62755 15.606L7.58705 15.5055L7.53905 15.3435L7.52405 15.264L7.50905 15.174L7.50305 15.0885V14.9115L7.51055 14.8245L7.52405 14.7345L7.53905 14.6565L7.58705 14.4945L7.62755 14.394L7.73255 14.196L7.83005 14.061L7.93955 13.9395L8.08055 13.815L8.19605 13.734L8.34005 13.653L8.39405 13.6275L8.49455 13.587L8.65655 13.539L8.73605 13.524L8.82605 13.509L8.91155 13.503L27.0001 13.5Z" fill="white"/>
</g>
<defs>
<clipPath id="clip0_316_319">
<rect width="36" height="36" fill="white"/>
</clipPath>
</defs>
</svg>
