<svg width="48" height="48" viewBox="0 0 48 48" fill="none" xmlns="http://www.w3.org/2000/svg">
<path fill-rule="evenodd" clip-rule="evenodd" d="M24.7058 17.0904V19.8824L19.0587 14.9412L24.7058 10V12.844C31.0047 13.2093 36 18.4331 36 24.8235C36 31.451 30.6274 36.8235 24 36.8235C17.3726 36.8235 12.0001 31.451 12 24.8236H16.2354C16.2355 29.1119 19.7119 32.5882 24.0001 32.5882C28.2885 32.5882 31.7648 29.1118 31.7648 24.8235C31.7648 20.7731 28.6634 17.447 24.7058 17.0904Z" fill="white"/>
<path d="M24.7058 19.8824L24.0473 20.6349C24.3426 20.8933 24.7617 20.9551 25.119 20.793C25.4763 20.6308 25.7058 20.2747 25.7058 19.8824H24.7058ZM24.7058 17.0904L24.7955 16.0945C24.5158 16.0693 24.2384 16.1628 24.0312 16.3523C23.8239 16.5417 23.7058 16.8096 23.7058 17.0904H24.7058ZM19.0587 14.9412L18.4002 14.1886C18.1832 14.3785 18.0587 14.6528 18.0587 14.9412C18.0587 15.2295 18.1832 15.5039 18.4002 15.6938L19.0587 14.9412ZM24.7058 10H25.7058C25.7058 9.60762 25.4763 9.2515 25.119 9.08937C24.7617 8.92723 24.3426 8.98904 24.0473 9.24742L24.7058 10ZM24.7058 12.844H23.7058C23.7058 13.3737 24.119 13.8116 24.6479 13.8423L24.7058 12.844ZM12 24.8236V23.8236C11.7348 23.8236 11.4804 23.929 11.2929 24.1165C11.1054 24.3041 11 24.5584 11 24.8237L12 24.8236ZM16.2354 24.8236L17.2354 24.8236C17.2354 24.2713 16.7877 23.8236 16.2354 23.8236V24.8236ZM25.7058 19.8824V17.0904H23.7058V19.8824H25.7058ZM18.4002 15.6938L24.0473 20.6349L25.3643 19.1298L19.7172 14.1886L18.4002 15.6938ZM24.0473 9.24742L18.4002 14.1886L19.7172 15.6938L25.3643 10.7526L24.0473 9.24742ZM25.7058 12.844V10H23.7058V12.844H25.7058ZM37 24.8235C37 17.9002 31.5884 12.2415 24.7637 11.8456L24.6479 13.8423C30.421 14.1771 35 18.9659 35 24.8235H37ZM24 37.8235C31.1797 37.8235 37 32.0032 37 24.8235H35C35 30.8987 30.0751 35.8235 24 35.8235V37.8235ZM11 24.8237C11.0001 32.0033 16.8203 37.8235 24 37.8235V35.8235C17.9249 35.8235 13.0001 30.8987 13 24.8236L11 24.8237ZM16.2354 23.8236H12V25.8236H16.2354V23.8236ZM24.0001 31.5882C20.2641 31.5882 17.2355 28.5596 17.2354 24.8236L15.2354 24.8237C15.2355 29.6642 19.1596 33.5882 24.0001 33.5882V31.5882ZM30.7648 24.8235C30.7648 28.5596 27.7362 31.5882 24.0001 31.5882V33.5882C28.8407 33.5882 32.7648 29.6641 32.7648 24.8235H30.7648ZM24.6161 18.0864C28.063 18.3969 30.7648 21.2952 30.7648 24.8235H32.7648C32.7648 20.2509 29.2639 16.497 24.7955 16.0945L24.6161 18.0864Z" fill="black"/>
</svg>
