<svg width="48" height="48" viewBox="0 0 48 48" fill="none" xmlns="http://www.w3.org/2000/svg">
<path fill-rule="evenodd" clip-rule="evenodd" d="M16 34L16 27H32L32 34L43 24L32 14L32 21H16L16 14L5 24L16 34Z" fill="white"/>
<path d="M16 27V26C15.4477 26 15 26.4477 15 27L16 27ZM16 34L15.3273 34.7399C15.6202 35.0062 16.0426 35.0746 16.4046 34.9145C16.7665 34.7544 17 34.3958 17 34L16 34ZM32 27L33 27C33 26.7348 32.8946 26.4804 32.7071 26.2929C32.5196 26.1054 32.2652 26 32 26V27ZM32 34L31 34C31 34.3958 31.2335 34.7544 31.5954 34.9145C31.9574 35.0746 32.3798 35.0062 32.6727 34.7399L32 34ZM43 24L43.6727 24.7399C43.8811 24.5504 44 24.2817 44 24C44 23.7183 43.8811 23.4496 43.6727 23.2601L43 24ZM32 14L32.6727 13.2601C32.3798 12.9938 31.9574 12.9254 31.5954 13.0855C31.2335 13.2456 31 13.6042 31 14L32 14ZM32 21V22C32.5523 22 33 21.5523 33 21L32 21ZM16 21L15 21C15 21.2652 15.1054 21.5196 15.2929 21.7071C15.4804 21.8946 15.7348 22 16 22V21ZM16 14L17 14C17 13.6042 16.7665 13.2456 16.4046 13.0855C16.0426 12.9254 15.6202 12.9938 15.3273 13.2601L16 14ZM5 24L4.32733 23.2601C4.11885 23.4496 4 23.7183 4 24C4 24.2817 4.11885 24.5504 4.32733 24.7399L5 24ZM15 27L15 34L17 34L17 27L15 27ZM32 26H16V28H32V26ZM31 27L31 34L33 34L33 27L31 27ZM32.6727 34.7399L43.6727 24.7399L42.3273 23.2601L31.3273 33.2601L32.6727 34.7399ZM43.6727 23.2601L32.6727 13.2601L31.3273 14.7399L42.3273 24.7399L43.6727 23.2601ZM31 14L31 21L33 21L33 14L31 14ZM16 22H32V20H16V22ZM15 14L15 21L17 21L17 14L15 14ZM5.67267 24.7399L16.6727 14.7399L15.3273 13.2601L4.32733 23.2601L5.67267 24.7399ZM16.6727 33.2601L5.67267 23.2601L4.32733 24.7399L15.3273 34.7399L16.6727 33.2601Z" fill="black"/>
</svg>
