<svg width="48" height="48" viewBox="0 0 48 48" fill="none" xmlns="http://www.w3.org/2000/svg">
<path fill-rule="evenodd" clip-rule="evenodd" d="M14.533 14.5122L5.92676 5H42.0731L33.4668 14.5122H42.0731L33.4668 24.0244H42.0731L23.9999 44L5.92676 24.0244H14.533L5.92676 14.5122H14.533Z" fill="white"/>
<path d="M5.92676 5V4C5.53137 4 5.17311 4.23296 5.01272 4.59436C4.85234 4.95576 4.91995 5.37772 5.18522 5.67091L5.92676 5ZM14.533 14.5122V15.5122C14.9284 15.5122 15.2867 15.2792 15.4471 14.9178C15.6074 14.5564 15.5398 14.1345 15.2746 13.8413L14.533 14.5122ZM42.0731 5L42.8146 5.67091C43.0799 5.37772 43.1475 4.95576 42.9871 4.59436C42.8268 4.23296 42.4685 4 42.0731 4V5ZM33.4668 14.5122L32.7253 13.8413C32.46 14.1345 32.3924 14.5564 32.5528 14.9178C32.7132 15.2792 33.0714 15.5122 33.4668 15.5122V14.5122ZM42.0731 14.5122L42.8146 15.1831C43.0799 14.8899 43.1475 14.468 42.9871 14.1066C42.8268 13.7452 42.4685 13.5122 42.0731 13.5122V14.5122ZM33.4668 24.0244L32.7253 23.3535C32.46 23.6467 32.3924 24.0686 32.5528 24.43C32.7132 24.7914 33.0714 25.0244 33.4668 25.0244V24.0244ZM42.0731 24.0244L42.8146 24.6953C43.0799 24.4021 43.1475 23.9801 42.9871 23.6188C42.8268 23.2574 42.4685 23.0244 42.0731 23.0244V24.0244ZM23.9999 44L23.2584 44.6709C23.448 44.8805 23.7174 45 23.9999 45C24.2825 45 24.5519 44.8805 24.7415 44.6709L23.9999 44ZM5.92676 24.0244V23.0244C5.53137 23.0244 5.17311 23.2574 5.01272 23.6188C4.85234 23.9801 4.91995 24.4021 5.18522 24.6953L5.92676 24.0244ZM14.533 24.0244V25.0244C14.9284 25.0244 15.2867 24.7914 15.4471 24.43C15.6074 24.0686 15.5398 23.6467 15.2746 23.3535L14.533 24.0244ZM5.92676 14.5122V13.5122C5.53137 13.5122 5.17311 13.7452 5.01272 14.1066C4.85234 14.468 4.91995 14.8899 5.18522 15.1831L5.92676 14.5122ZM5.18522 5.67091L13.7915 15.1831L15.2746 13.8413L6.66829 4.32909L5.18522 5.67091ZM42.0731 4H5.92676V6H42.0731V4ZM34.2084 15.1831L42.8146 5.67091L41.3316 4.32909L32.7253 13.8413L34.2084 15.1831ZM33.4668 15.5122H42.0731V13.5122H33.4668V15.5122ZM41.3316 13.8413L32.7253 23.3535L34.2084 24.6953L42.8146 15.1831L41.3316 13.8413ZM33.4668 25.0244H42.0731V23.0244H33.4668V25.0244ZM41.3316 23.3535L23.2584 43.3291L24.7415 44.6709L42.8146 24.6953L41.3316 23.3535ZM24.7415 43.3291L6.66829 23.3535L5.18522 24.6953L23.2584 44.6709L24.7415 43.3291ZM5.92676 25.0244H14.533V23.0244H5.92676V25.0244ZM15.2746 23.3535L6.66829 13.8413L5.18522 15.1831L13.7915 24.6953L15.2746 23.3535ZM5.92676 15.5122H14.533V13.5122H5.92676V15.5122Z" fill="black"/>
</svg>
