<svg width="48" height="48" viewBox="0 0 48 48" fill="none" xmlns="http://www.w3.org/2000/svg">
<path fill-rule="evenodd" clip-rule="evenodd" d="M25 14.0448V18L17 11L25 4V8.02892C33.9234 8.54654 41 15.9469 41 25C41 34.3888 33.3888 42 24 42C14.6112 42 7 34.3888 7 25H13C13 31.0751 17.9249 36 24 36C30.0751 36 35 31.0751 35 25C35 19.262 30.6065 14.5501 25 14.0448Z" fill="white"/>
<path d="M25 18L24.3415 18.7526C24.6368 19.011 25.0559 19.0728 25.4132 18.9106C25.7705 18.7485 26 18.3924 26 18H25ZM25 14.0448L25.0898 13.0489C24.8101 13.0237 24.5327 13.1172 24.3254 13.3067C24.1181 13.4961 24 13.764 24 14.0448H25ZM17 11L16.3415 10.2474C16.1245 10.4373 16 10.7116 16 11C16 11.2884 16.1245 11.5627 16.3415 11.7526L17 11ZM25 4H26C26 3.60762 25.7705 3.2515 25.4132 3.08937C25.0559 2.92723 24.6368 2.98904 24.3415 3.24742L25 4ZM25 8.02892H24C24 8.55871 24.4132 8.99657 24.9421 9.02725L25 8.02892ZM7 25V24C6.44772 24 6 24.4477 6 25H7ZM13 25H14C14 24.4477 13.5523 24 13 24V25ZM26 18V14.0448H24V18H26ZM16.3415 11.7526L24.3415 18.7526L25.6585 17.2474L17.6585 10.2474L16.3415 11.7526ZM24.3415 3.24742L16.3415 10.2474L17.6585 11.7526L25.6585 4.75258L24.3415 3.24742ZM26 8.02892V4H24V8.02892H26ZM42 25C42 15.414 34.5071 7.57872 25.0579 7.0306L24.9421 9.02725C33.3397 9.51436 40 16.4797 40 25H42ZM24 43C33.9411 43 42 34.9411 42 25H40C40 33.8366 32.8366 41 24 41V43ZM6 25C6 34.9411 14.0589 43 24 43V41C15.1634 41 8 33.8366 8 25H6ZM13 24H7V26H13V24ZM24 35C18.4772 35 14 30.5228 14 25H12C12 31.6274 17.3726 37 24 37V35ZM34 25C34 30.5228 29.5228 35 24 35V37C30.6274 37 36 31.6274 36 25H34ZM24.9102 15.0408C30.006 15.5 34 19.7841 34 25H36C36 18.7398 31.207 13.6001 25.0898 13.0489L24.9102 15.0408Z" fill="black"/>
</svg>
