<svg width="48" height="48" viewBox="0 0 48 48" fill="none" xmlns="http://www.w3.org/2000/svg">
<mask id="path-1-inside-1_514_489" fill="white">
<path fill-rule="evenodd" clip-rule="evenodd" d="M4 18C3.44772 18 3 18.4477 3 19V28C3 28.5523 3.44771 29 4 29H13C13.5523 29 14 28.5523 14 28V27H34V28C34 28.5523 34.4477 29 35 29H44C44.5523 29 45 28.5523 45 28V19C45 18.4477 44.5523 18 44 18H35C34.4477 18 34 18.4477 34 19V20H14V19C14 18.4477 13.5523 18 13 18H4Z"/>
</mask>
<path fill-rule="evenodd" clip-rule="evenodd" d="M4 18C3.44772 18 3 18.4477 3 19V28C3 28.5523 3.44771 29 4 29H13C13.5523 29 14 28.5523 14 28V27H34V28C34 28.5523 34.4477 29 35 29H44C44.5523 29 45 28.5523 45 28V19C45 18.4477 44.5523 18 44 18H35C34.4477 18 34 18.4477 34 19V20H14V19C14 18.4477 13.5523 18 13 18H4Z" fill="white"/>
<path d="M14 27V25H12V27H14ZM34 27H36V25H34V27ZM34 20V22H36V20H34ZM14 20H12V22H14V20ZM5 19C5 19.5523 4.55228 20 4 20V16C2.34315 16 1 17.3431 1 19H5ZM5 28V19H1V28H5ZM4 27C4.55229 27 5 27.4477 5 28H1C1 29.6569 2.34314 31 4 31V27ZM13 27H4V31H13V27ZM12 28C12 27.4477 12.4477 27 13 27V31C14.6569 31 16 29.6569 16 28H12ZM12 27V28H16V27H12ZM14 29H34V25H14V29ZM32 27V28H36V27H32ZM32 28C32 29.6569 33.3431 31 35 31V27C35.5523 27 36 27.4477 36 28H32ZM35 31H44V27H35V31ZM44 31C45.6569 31 47 29.6569 47 28H43C43 27.4477 43.4477 27 44 27V31ZM47 28V19H43V28H47ZM47 19C47 17.3431 45.6569 16 44 16V20C43.4477 20 43 19.5523 43 19H47ZM44 16H35V20H44V16ZM35 16C33.3431 16 32 17.3431 32 19H36C36 19.5523 35.5523 20 35 20V16ZM32 19V20H36V19H32ZM34 18H14V22H34V18ZM12 19V20H16V19H12ZM13 20C12.4477 20 12 19.5523 12 19H16C16 17.3431 14.6569 16 13 16V20ZM4 20H13V16H4V20Z" fill="black" mask="url(#path-1-inside-1_514_489)"/>
</svg>
