<svg width="48" height="48" viewBox="0 0 48 48" fill="none" xmlns="http://www.w3.org/2000/svg">
<g clip-path="url(#clip0_507_210)">
<path fill-rule="evenodd" clip-rule="evenodd" d="M8.62225 11.6917L5.04083 15.2731L5.11621 5.11609L15.2733 5.04071L11.692 8.62198L21.7737 18.7037L18.704 21.7734L8.62225 11.6917Z" fill="white"/>
<path d="M5.04083 15.2731L4.04086 15.2657C4.03785 15.6715 4.28038 16.0389 4.65472 16.1956C5.02907 16.3523 5.46098 16.2672 5.74794 15.9802L5.04083 15.2731ZM8.62225 11.6917L9.32936 10.9846C8.93884 10.5941 8.30567 10.5941 7.91515 10.9846L8.62225 11.6917ZM5.11621 5.11609L5.10879 4.11612C4.56231 4.12017 4.12029 4.56219 4.11624 5.10867L5.11621 5.11609ZM15.2733 5.04071L15.9804 5.74782C16.2673 5.46087 16.3524 5.02895 16.1957 4.6546C16.039 4.28026 15.6716 4.03773 15.2658 4.04074L15.2733 5.04071ZM11.692 8.62198L10.9849 7.91488C10.7973 8.10241 10.692 8.35677 10.692 8.62198C10.692 8.8872 10.7973 9.14155 10.9849 9.32909L11.692 8.62198ZM21.7737 18.7037L22.4808 19.4108C22.8713 19.0203 22.8713 18.3871 22.4808 17.9966L21.7737 18.7037ZM18.704 21.7734L17.9969 22.4805C18.3874 22.8711 19.0206 22.8711 19.4111 22.4805L18.704 21.7734ZM5.74794 15.9802L9.32936 12.3988L7.91515 10.9846L4.33372 14.566L5.74794 15.9802ZM4.11624 5.10867L4.04086 15.2657L6.0408 15.2806L6.11618 5.12351L4.11624 5.10867ZM15.2658 4.04074L5.10879 4.11612L5.12363 6.11606L15.2807 6.04068L15.2658 4.04074ZM12.3991 9.32909L15.9804 5.74782L14.5661 4.3336L10.9849 7.91488L12.3991 9.32909ZM10.9849 9.32909L21.0666 19.4108L22.4808 17.9966L12.3991 7.91488L10.9849 9.32909ZM21.0666 17.9966L17.9969 21.0663L19.4111 22.4805L22.4808 19.4108L21.0666 17.9966ZM19.4111 21.0663L9.32936 10.9846L7.91515 12.3988L17.9969 22.4805L19.4111 21.0663Z" fill="black"/>
<path fill-rule="evenodd" clip-rule="evenodd" d="M39.3777 36.3082L42.9592 32.7267L42.8838 42.8838L32.7267 42.9592L36.308 39.3779L26.2263 29.2962L29.296 26.2264L39.3777 36.3082Z" fill="white"/>
<path d="M42.9592 32.7267L43.9591 32.7342C43.9622 32.3284 43.7196 31.961 43.3453 31.8043C42.9709 31.6476 42.539 31.7327 42.2521 32.0196L42.9592 32.7267ZM39.3777 36.3082L38.6706 37.0153C39.0612 37.4058 39.6943 37.4058 40.0849 37.0153L39.3777 36.3082ZM42.8838 42.8838L42.8912 43.8838C43.4377 43.8797 43.8797 43.4377 43.8838 42.8912L42.8838 42.8838ZM32.7267 42.9592L32.0196 42.2521C31.7327 42.539 31.6476 42.9709 31.8043 43.3453C31.961 43.7196 32.3284 43.9621 32.7342 43.9591L32.7267 42.9592ZM36.308 39.3779L37.0151 40.085C37.2027 39.8975 37.308 39.6431 37.308 39.3779C37.308 39.1127 37.2027 38.8583 37.0151 38.6708L36.308 39.3779ZM26.2263 29.2962L25.5192 28.5891C25.1287 28.9796 25.1287 29.6128 25.5192 30.0033L26.2263 29.2962ZM29.296 26.2264L30.0031 25.5193C29.6126 25.1288 28.9794 25.1288 28.5889 25.5193L29.296 26.2264ZM42.2521 32.0196L38.6706 35.6011L40.0849 37.0153L43.6663 33.4339L42.2521 32.0196ZM43.8838 42.8912L43.9591 32.7342L41.9592 32.7193L41.8838 42.8764L43.8838 42.8912ZM32.7342 43.9591L42.8912 43.8838L42.8764 41.8838L32.7193 41.9592L32.7342 43.9591ZM35.6009 38.6708L32.0196 42.2521L33.4339 43.6663L37.0151 40.085L35.6009 38.6708ZM37.0151 38.6708L26.9334 28.5891L25.5192 30.0033L35.6009 40.085L37.0151 38.6708ZM26.9334 30.0033L30.0031 26.9335L28.5889 25.5193L25.5192 28.5891L26.9334 30.0033ZM28.5889 26.9335L38.6706 37.0153L40.0849 35.6011L30.0031 25.5193L28.5889 26.9335Z" fill="black"/>
<path fill-rule="evenodd" clip-rule="evenodd" d="M36.3082 8.62225L32.7267 5.04083L42.8838 5.11621L42.9592 15.2733L39.3779 11.692L29.2962 21.7737L26.2264 18.704L36.3082 8.62225Z" fill="white"/>
<path d="M32.7267 5.04083L32.7342 4.04086C32.3284 4.03785 31.961 4.28038 31.8043 4.65472C31.6476 5.02907 31.7327 5.46098 32.0196 5.74794L32.7267 5.04083ZM36.3082 8.62225L37.0153 9.32936C37.4058 8.93884 37.4058 8.30567 37.0153 7.91515L36.3082 8.62225ZM42.8838 5.11621L43.8838 5.10879C43.8797 4.56231 43.4377 4.12029 42.8912 4.11624L42.8838 5.11621ZM42.9592 15.2733L42.2521 15.9804C42.539 16.2673 42.9709 16.3524 43.3453 16.1957C43.7196 16.039 43.9621 15.6716 43.9591 15.2658L42.9592 15.2733ZM39.3779 11.692L40.085 10.9849C39.8975 10.7973 39.6431 10.692 39.3779 10.692C39.1127 10.692 38.8583 10.7973 38.6708 10.9849L39.3779 11.692ZM29.2962 21.7737L28.5891 22.4808C28.7766 22.6684 29.031 22.7737 29.2962 22.7737C29.5614 22.7737 29.8157 22.6684 30.0033 22.4808L29.2962 21.7737ZM26.2264 18.704L25.5193 17.9969C25.3318 18.1844 25.2264 18.4388 25.2264 18.704C25.2264 18.9692 25.3318 19.2236 25.5193 19.4111L26.2264 18.704ZM32.0196 5.74794L35.6011 9.32936L37.0153 7.91515L33.4339 4.33373L32.0196 5.74794ZM42.8912 4.11624L32.7342 4.04086L32.7193 6.0408L42.8764 6.11618L42.8912 4.11624ZM43.9591 15.2658L43.8838 5.10879L41.8838 5.12363L41.9592 15.2807L43.9591 15.2658ZM38.6708 12.3991L42.2521 15.9804L43.6663 14.5661L40.085 10.9849L38.6708 12.3991ZM38.6708 10.9849L28.5891 21.0666L30.0033 22.4808L40.085 12.3991L38.6708 10.9849ZM30.0033 21.0666L26.9335 17.9969L25.5193 19.4111L28.5891 22.4808L30.0033 21.0666ZM26.9335 19.4111L37.0153 9.32936L35.6011 7.91515L25.5193 17.9969L26.9335 19.4111Z" fill="black"/>
<path fill-rule="evenodd" clip-rule="evenodd" d="M11.6918 39.3777L15.2733 42.9592L5.11621 42.8838L5.04083 32.7267L8.62211 36.308L18.7038 26.2263L21.7736 29.296L11.6918 39.3777Z" fill="white"/>
<path d="M15.2733 42.9592L15.2658 43.9591C15.6716 43.9622 16.039 43.7196 16.1957 43.3453C16.3524 42.9709 16.2673 42.539 15.9804 42.2521L15.2733 42.9592ZM11.6918 39.3777L10.9847 38.6706C10.5942 39.0612 10.5942 39.6943 10.9847 40.0849L11.6918 39.3777ZM5.11621 42.8838L4.11624 42.8912C4.12029 43.4377 4.56231 43.8797 5.10879 43.8838L5.11621 42.8838ZM5.04083 32.7267L5.74794 32.0196C5.46099 31.7327 5.02907 31.6476 4.65472 31.8043C4.28038 31.961 4.03785 32.3284 4.04086 32.7342L5.04083 32.7267ZM8.62211 36.308L7.915 37.0151C8.10253 37.2027 8.35689 37.308 8.6221 37.308C8.88732 37.308 9.14168 37.2027 9.32921 37.0151L8.62211 36.308ZM18.7038 26.2263L19.4109 25.5192C19.0204 25.1287 18.3872 25.1287 17.9967 25.5192L18.7038 26.2263ZM21.7736 29.296L22.4807 30.0031C22.8712 29.6126 22.8712 28.9794 22.4807 28.5889L21.7736 29.296ZM15.9804 42.2521L12.3989 38.6706L10.9847 40.0849L14.5661 43.6663L15.9804 42.2521ZM5.10879 43.8838L15.2658 43.9591L15.2807 41.9592L5.12363 41.8838L5.10879 43.8838ZM4.04086 32.7342L4.11624 42.8912L6.11618 42.8764L6.04081 32.7193L4.04086 32.7342ZM9.32921 35.6009L5.74794 32.0196L4.33373 33.4339L7.915 37.0151L9.32921 35.6009ZM9.32921 37.0151L19.4109 26.9334L17.9967 25.5192L7.915 35.6009L9.32921 37.0151ZM17.9967 26.9334L21.0665 30.0031L22.4807 28.5889L19.4109 25.5192L17.9967 26.9334ZM21.0665 28.5889L10.9847 38.6706L12.3989 40.0849L22.4807 30.0031L21.0665 28.5889Z" fill="black"/>
</g>
<defs>
<clipPath id="clip0_507_210">
<rect width="48" height="48" fill="white"/>
</clipPath>
</defs>
</svg>
