<svg xmlns="http://www.w3.org/2000/svg" width="36" height="30" fill="none"><g clip-path="url(#a)"><path fill="#1D9BF0" d="M32.218 7.543c.022.319.022.638.022.96 0 9.813-7.374 21.13-20.858 21.13v-.005a20.558 20.558 0 0 1-11.237-3.33c.58.071 1.161.106 1.745.108a14.6 14.6 0 0 0 9.104-3.185c-3.137-.06-5.887-2.133-6.848-5.158a7.215 7.215 0 0 0 3.31-.128c-3.42-.7-5.881-3.744-5.881-7.28v-.093a7.213 7.213 0 0 0 3.327.93C1.681 9.31.688 4.968 2.633 1.574c3.722 4.64 9.214 7.46 15.108 7.759a7.493 7.493 0 0 1 2.121-7.096 7.272 7.272 0 0 1 10.372.322A14.596 14.596 0 0 0 34.89.757a7.438 7.438 0 0 1-3.222 4.108 14.433 14.433 0 0 0 4.21-1.17 15.002 15.002 0 0 1-3.659 3.848Z"/></g><defs><clipPath id="a"><path fill="#fff" d="M0 0h36v30H0z"/></clipPath></defs></svg>