<svg width="48" height="48" viewBox="0 0 48 48" fill="none" xmlns="http://www.w3.org/2000/svg">
<mask id="path-1-inside-1_423_41" fill="white">
<rect x="11" y="11" width="4" height="4" rx="0.5"/>
</mask>
<rect x="11" y="11" width="4" height="4" rx="0.5" fill="white" stroke="white" stroke-width="2" mask="url(#path-1-inside-1_423_41)"/>
<mask id="path-2-inside-2_423_41" fill="white">
<rect x="19" y="11" width="4" height="4" rx="0.5"/>
</mask>
<rect x="19" y="11" width="4" height="4" rx="0.5" fill="white" stroke="white" stroke-width="2" mask="url(#path-2-inside-2_423_41)"/>
<mask id="path-3-inside-3_423_41" fill="white">
<rect x="19" y="18" width="24" height="24" rx="1"/>
</mask>
<rect x="19" y="18" width="24" height="24" rx="1" stroke="white" stroke-width="4" mask="url(#path-3-inside-3_423_41)"/>
<path fill-rule="evenodd" clip-rule="evenodd" d="M7 28V8H27V15H29V7C29 6.44772 28.5523 6 28 6H6C5.44772 6 5 6.44772 5 7V29C5 29.5523 5.44772 30 6 30H16V28H7Z" fill="white"/>
<path d="M16 28H16.5C16.7761 28 17 28.2239 17 28.5V29.5C17 29.7761 16.7761 30 16.5 30H16V28Z" fill="white"/>
<path d="M27 15H29V15.5C29 15.7761 28.7761 16 28.5 16H27.5C27.2239 16 27 15.7761 27 15.5V15Z" fill="white"/>
<rect x="10" y="18" width="7" height="4" rx="0.5" fill="white"/>
<path d="M22 23L24 21M22 27L28 21M22 31L32 21M22 35L36 21M22 39L40 21M26 39L40 25M30 39L40 29M34 39L40 33M38 39L40 37" stroke="white"/>
</svg>
