<svg width="48" height="48" viewBox="0 0 48 48" fill="none" xmlns="http://www.w3.org/2000/svg">
<mask id="path-1-inside-1_423_34" fill="white">
<rect x="5" y="6" width="24" height="24" rx="1"/>
</mask>
<rect x="5" y="6" width="24" height="24" rx="1" stroke="white" stroke-width="4" mask="url(#path-1-inside-1_423_34)"/>
<rect x="11" y="11" width="4" height="4" rx="0.5" fill="white"/>
<rect x="10" y="18" width="14" height="4" rx="0.5" fill="white"/>
<rect x="19" y="11" width="4" height="4" rx="0.5" fill="white"/>
<path fill-rule="evenodd" clip-rule="evenodd" d="M40 20H32V18H41C41.5523 18 42 18.4477 42 19V41C42 41.5523 41.5523 42 41 42H19C18.4477 42 18 41.5523 18 41V33H20V40H40V20Z" fill="white"/>
<path d="M31 18.5C31 18.2239 31.2239 18 31.5 18H32V20H31.5C31.2239 20 31 19.7761 31 19.5V18.5Z" fill="white"/>
<path d="M18 32.5C18 32.2239 18.2239 32 18.5 32H19.5C19.7761 32 20 32.2239 20 32.5V33H18V32.5Z" fill="white"/>
<path fill-rule="evenodd" clip-rule="evenodd" d="M23.2929 32L20.6465 34.6465L21.3536 35.3536L24.7071 32H23.2929ZM27.2929 32L20.6465 38.6465L21.3536 39.3536L28.7071 32H27.2929ZM32 28.7071V27.2929L38.6465 20.6465L39.3536 21.3536L32 28.7071ZM31.2929 32H32V31.2929L38.6465 24.6465L39.3536 25.3536L25.3536 39.3536L24.6465 38.6465L31.2929 32ZM32 24.7071V23.2929L34.6465 20.6465L35.3536 21.3536L32 24.7071ZM29.3536 39.3536L39.3536 29.3536L38.6465 28.6465L28.6465 38.6465L29.3536 39.3536ZM33.3536 39.3536L39.3536 33.3536L38.6465 32.6465L32.6465 38.6465L33.3536 39.3536ZM37.3536 39.3536L39.3536 37.3536L38.6465 36.6465L36.6465 38.6465L37.3536 39.3536Z" fill="white"/>
</svg>
