<svg width="48" height="48" viewBox="0 0 48 48" fill="none" xmlns="http://www.w3.org/2000/svg">
<path fill-rule="evenodd" clip-rule="evenodd" d="M25 14.0448V18L17 11L25 4V8.02892C33.9234 8.54654 41 15.9469 41 25C41 34.3888 33.3888 42 24 42C14.6112 42 7 34.3888 7 25H13C13 31.0751 17.9249 36 24 36C30.0751 36 35 31.0751 35 25C35 19.262 30.6065 14.5501 25 14.0448Z" fill="white"/>
<path d="M25 18L24.3415 18.7526C24.6368 19.011 25.0559 19.0728 25.4132 18.9106C25.7705 18.7485 26 18.3924 26 18H25ZM25 14.0448L25.0898 13.0489C24.8101 13.0237 24.5327 13.1172 24.3254 13.3067C24.1181 13.4961 24 13.764 24 14.0448H25ZM17 11L16.3415 10.2474C16.1245 10.4373 16 10.7116 16 11C16 11.2884 16.1245 11.5627 16.3415 11.7526L17 11ZM25 4H26C26 3.60762 25.7705 3.2515 25.4132 3.08937C25.0559 2.92723 24.6368 2.98904 24.3415 3.24742L25 4ZM25 8.02892H24C24 8.55871 24.4132 8.99657 24.9421 9.02725L25 8.02892ZM7 25V24C6.44772 24 6 24.4477 6 25H7ZM13 25H14C14 24.4477 13.5523 24 13 24V25ZM26 18V14.0448H24V18H26ZM16.3415 11.7526L24.3415 18.7526L25.6585 17.2474L17.6585 10.2474L16.3415 11.7526ZM24.3415 3.24742L16.3415 10.2474L17.6585 11.7526L25.6585 4.75258L24.3415 3.24742ZM26 8.02892V4H24V8.02892H26ZM42 25C42 15.414 34.5071 7.57872 25.0579 7.0306L24.9421 9.02725C33.3397 9.51436 40 16.4797 40 25H42ZM24 43C33.9411 43 42 34.9411 42 25H40C40 33.8366 32.8366 41 24 41V43ZM6 25C6 34.9411 14.0589 43 24 43V41C15.1634 41 8 33.8366 8 25H6ZM13 24H7V26H13V24ZM24 35C18.4772 35 14 30.5228 14 25H12C12 31.6274 17.3726 37 24 37V35ZM34 25C34 30.5228 29.5228 35 24 35V37C30.6274 37 36 31.6274 36 25H34ZM24.9102 15.0408C30.006 15.5 34 19.7841 34 25H36C36 18.7398 31.207 13.6001 25.0898 13.0489L24.9102 15.0408Z" fill="black"/>
<mask id="path-3-outside-1_404_53" maskUnits="userSpaceOnUse" x="16" y="17" width="16" height="17" fill="black">
<rect fill="white" x="16" y="17" width="16" height="17"/>
<path d="M21.8846 19.48H25.6286C26.6366 19.48 27.3206 19.39 27.6986 19.192C27.8426 19.12 27.9686 19.084 28.0766 19.084C28.2566 19.084 28.3826 19.174 28.4726 19.372C28.7426 20.002 28.8866 20.542 28.8866 20.956C28.8866 21.37 28.7426 21.694 28.4546 21.892C27.9866 22.234 27.4646 22.414 26.9066 22.432C26.4566 22.45 25.8986 22.468 25.2686 22.468C25.0346 22.468 24.8906 22.63 24.8006 22.954L24.7466 23.422C25.0886 23.314 25.4486 23.26 25.8446 23.26C26.2586 23.26 26.6906 23.314 27.1406 23.44C28.5446 23.818 29.2466 24.844 29.2466 26.482C29.2466 26.68 29.2466 26.842 29.2286 27.004C29.0306 29.578 27.3566 30.91 24.2066 31.036C23.0726 31.09 21.9566 30.892 20.8226 30.478C20.1386 30.226 19.5446 29.884 19.0406 29.434C18.8426 29.272 18.7526 29.02 18.7526 28.714C18.7526 28.552 18.7706 28.372 18.8246 28.174C19.0946 27.436 19.4186 27.058 19.7606 27.04C20.0306 27.04 20.3186 27.148 20.6426 27.364C21.3086 27.742 21.8306 27.922 22.1906 27.922C22.5146 27.922 22.7126 27.778 22.7666 27.472C22.7846 27.346 22.8026 27.238 22.8026 27.13C22.8026 26.536 22.4246 26.23 21.6506 26.194C20.0486 26.122 19.2566 25.654 19.2566 24.772C19.2566 24.7 19.2746 24.592 19.2926 24.448C19.4186 23.674 19.6346 22.504 19.9046 20.974C20.1026 19.984 20.7506 19.48 21.8846 19.48Z"/>
</mask>
<path d="M21.8846 19.48H25.6286C26.6366 19.48 27.3206 19.39 27.6986 19.192C27.8426 19.12 27.9686 19.084 28.0766 19.084C28.2566 19.084 28.3826 19.174 28.4726 19.372C28.7426 20.002 28.8866 20.542 28.8866 20.956C28.8866 21.37 28.7426 21.694 28.4546 21.892C27.9866 22.234 27.4646 22.414 26.9066 22.432C26.4566 22.45 25.8986 22.468 25.2686 22.468C25.0346 22.468 24.8906 22.63 24.8006 22.954L24.7466 23.422C25.0886 23.314 25.4486 23.26 25.8446 23.26C26.2586 23.26 26.6906 23.314 27.1406 23.44C28.5446 23.818 29.2466 24.844 29.2466 26.482C29.2466 26.68 29.2466 26.842 29.2286 27.004C29.0306 29.578 27.3566 30.91 24.2066 31.036C23.0726 31.09 21.9566 30.892 20.8226 30.478C20.1386 30.226 19.5446 29.884 19.0406 29.434C18.8426 29.272 18.7526 29.02 18.7526 28.714C18.7526 28.552 18.7706 28.372 18.8246 28.174C19.0946 27.436 19.4186 27.058 19.7606 27.04C20.0306 27.04 20.3186 27.148 20.6426 27.364C21.3086 27.742 21.8306 27.922 22.1906 27.922C22.5146 27.922 22.7126 27.778 22.7666 27.472C22.7846 27.346 22.8026 27.238 22.8026 27.13C22.8026 26.536 22.4246 26.23 21.6506 26.194C20.0486 26.122 19.2566 25.654 19.2566 24.772C19.2566 24.7 19.2746 24.592 19.2926 24.448C19.4186 23.674 19.6346 22.504 19.9046 20.974C20.1026 19.984 20.7506 19.48 21.8846 19.48Z" fill="white"/>
<path d="M27.6986 19.192L26.8042 17.4031L26.7873 17.4116L26.7706 17.4203L27.6986 19.192ZM28.4726 19.372L30.3109 18.5842L30.3023 18.5642L30.2933 18.5444L28.4726 19.372ZM28.4546 21.892L27.3215 20.2439L27.2978 20.2602L27.2745 20.2772L28.4546 21.892ZM26.9066 22.432L26.8421 20.433L26.8344 20.4333L26.8266 20.4336L26.9066 22.432ZM24.8006 22.954L22.8735 22.4187L22.8317 22.5694L22.8138 22.7248L24.8006 22.954ZM24.7466 23.422L22.7598 23.1928L22.406 26.2585L25.3488 25.3292L24.7466 23.422ZM27.1406 23.44L26.6013 25.3659L26.611 25.3686L26.6206 25.3712L27.1406 23.44ZM29.2286 27.004L27.2408 26.7831L27.2371 26.8168L27.2345 26.8506L29.2286 27.004ZM24.2066 31.036L24.1266 29.0376L24.119 29.0379L24.1114 29.0383L24.2066 31.036ZM20.8226 30.478L20.1312 32.3547L20.1367 32.3567L20.8226 30.478ZM19.0406 29.434L20.3726 27.9421L20.3404 27.9134L20.3071 27.8861L19.0406 29.434ZM18.8246 28.174L16.9463 27.4868L16.9173 27.5662L16.8951 27.6478L18.8246 28.174ZM19.7606 27.04V25.04H19.708L19.6555 25.0428L19.7606 27.04ZM20.6426 27.364L19.5332 29.0281L19.5929 29.0679L19.6554 29.1034L20.6426 27.364ZM22.7666 27.472L24.7361 27.8196L24.7418 27.7873L24.7465 27.7548L22.7666 27.472ZM21.6506 26.194L21.7435 24.1962L21.7404 24.196L21.6506 26.194ZM19.2926 24.448L17.3186 24.1266L17.3126 24.1632L17.308 24.1999L19.2926 24.448ZM19.9046 20.974L17.9434 20.5818L17.939 20.6041L17.935 20.6264L19.9046 20.974ZM21.8846 21.48H25.6286V17.48H21.8846V21.48ZM25.6286 21.48C26.1829 21.48 26.7045 21.4558 27.1718 21.3917C27.615 21.3308 28.1419 21.2175 28.6266 20.9637L26.7706 17.4203C26.8772 17.3645 26.8731 17.3952 26.6279 17.4288C26.4066 17.4592 26.0822 17.48 25.6286 17.48V21.48ZM28.593 20.9809C28.5784 20.9881 28.5297 21.0114 28.4505 21.034C28.3715 21.0566 28.243 21.084 28.0766 21.084V17.084C27.5433 17.084 27.1008 17.2548 26.8042 17.4031L28.593 20.9809ZM28.0766 21.084C27.8108 21.084 27.4608 21.0093 27.1353 20.7736C26.8359 20.5568 26.7005 20.3067 26.6518 20.1996L30.2933 18.5444C30.1547 18.2393 29.9113 17.8452 29.4814 17.5339C29.0254 17.2037 28.5224 17.084 28.0766 17.084V21.084ZM26.6343 20.1598C26.7401 20.4067 26.8074 20.6043 26.8465 20.7532C26.8872 20.9081 26.8866 20.9695 26.8866 20.956H30.8866C30.8866 20.1426 30.6214 19.3088 30.3109 18.5842L26.6343 20.1598ZM26.8866 20.956C26.8866 20.9347 26.8901 20.8255 26.9596 20.6735C27.0346 20.5095 27.1603 20.3548 27.3215 20.2439L29.5876 23.5401C30.5488 22.8793 30.8866 21.8527 30.8866 20.956H26.8866ZM27.2745 20.2772C27.1243 20.387 26.9895 20.4283 26.8421 20.433L26.9711 24.431C27.9396 24.3997 28.8488 24.081 29.6346 23.5068L27.2745 20.2772ZM26.8266 20.4336C26.3896 20.4511 25.8611 20.468 25.2686 20.468V24.468C25.9361 24.468 26.5235 24.4489 26.9865 24.4304L26.8266 20.4336ZM25.2686 20.468C24.6199 20.468 23.9935 20.7219 23.5266 21.2163C23.1305 21.6357 22.9583 22.1134 22.8735 22.4187L26.7276 23.4893C26.726 23.495 26.7119 23.5457 26.6742 23.6225C26.6364 23.6996 26.5633 23.8265 26.4346 23.9627C26.3 24.1053 26.1181 24.2431 25.8894 24.34C25.6622 24.4362 25.4456 24.468 25.2686 24.468V20.468ZM22.8138 22.7248L22.7598 23.1928L26.7334 23.6512L26.7874 23.1832L22.8138 22.7248ZM25.3488 25.3292C25.4812 25.2874 25.6368 25.26 25.8446 25.26V21.26C25.2604 21.26 24.6959 21.3406 24.1443 21.5148L25.3488 25.3292ZM25.8446 25.26C26.0815 25.26 26.3318 25.2905 26.6013 25.3659L27.6798 21.5141C27.0494 21.3375 26.4357 21.26 25.8446 21.26V25.26ZM26.6206 25.3712C26.9455 25.4587 27.0363 25.5698 27.0741 25.6246C27.1297 25.7051 27.2466 25.9373 27.2466 26.482H31.2466C31.2466 25.3887 31.0125 24.2889 30.366 23.3524C29.7019 22.3902 28.7396 21.7993 27.6605 21.5088L26.6206 25.3712ZM27.2466 26.482C27.2466 26.704 27.2443 26.7513 27.2408 26.7831L31.2163 27.2249C31.2488 26.9327 31.2466 26.656 31.2466 26.482H27.2466ZM27.2345 26.8506C27.1687 27.7058 26.8934 28.1213 26.5742 28.3771C26.1959 28.6801 25.4694 28.9839 24.1266 29.0376L24.2865 33.0344C26.0938 32.9621 27.7793 32.5369 29.075 31.4989C30.4297 30.4137 31.0905 28.8762 31.2227 27.1574L27.2345 26.8506ZM24.1114 29.0383C23.2829 29.0777 22.433 28.9368 21.5085 28.5993L20.1367 32.3567C21.4802 32.8472 22.8623 33.1023 24.3017 33.0337L24.1114 29.0383ZM21.514 28.6013C21.032 28.4237 20.664 28.2023 20.3726 27.9421L17.7085 30.9259C18.4251 31.5657 19.2452 32.0283 20.1312 32.3547L21.514 28.6013ZM20.3071 27.8861C20.7244 28.2276 20.7526 28.6473 20.7526 28.714H16.7526C16.7526 29.3927 16.9607 30.3164 17.7741 30.9819L20.3071 27.8861ZM20.7526 28.714C20.7526 28.7106 20.7527 28.7085 20.7527 28.7073C20.7528 28.7062 20.7529 28.7057 20.7529 28.7056C20.7529 28.7054 20.7529 28.7052 20.753 28.7046C20.7532 28.7041 20.7534 28.7026 20.7541 28.7002L16.8951 27.6478C16.7883 28.0393 16.7526 28.3986 16.7526 28.714H20.7526ZM20.7028 28.8612C20.7966 28.6048 20.8486 28.5614 20.802 28.6174C20.7548 28.674 20.4501 29.0065 19.8657 29.0372L19.6555 25.0428C18.7291 25.0915 18.0913 25.622 17.7291 26.0566C17.3675 26.4906 17.1225 27.0052 16.9463 27.4868L20.7028 28.8612ZM19.7606 29.04C19.6238 29.04 19.5283 29.0119 19.4886 28.9972C19.4538 28.9843 19.4668 28.9839 19.5332 29.0281L21.752 25.6999C21.2514 25.3662 20.5753 25.04 19.7606 25.04V29.04ZM19.6554 29.1034C20.3879 29.5192 21.2893 29.922 22.1906 29.922V25.922C22.3203 25.922 22.3384 25.9492 22.203 25.9009C22.0817 25.8576 21.892 25.7734 21.6298 25.6246L19.6554 29.1034ZM22.1906 29.922C22.6321 29.922 23.2423 29.8244 23.7975 29.3984C24.3789 28.9522 24.6436 28.3438 24.7361 27.8196L20.797 27.1244C20.8355 26.9062 20.9743 26.5228 21.3622 26.2251C21.7238 25.9476 22.0731 25.922 22.1906 25.922V29.922ZM24.7465 27.7548C24.7533 27.7072 24.8026 27.418 24.8026 27.13H20.8026C20.8026 27.1015 20.8038 27.0799 20.8047 27.0673C20.8055 27.0552 20.8063 27.0502 20.8056 27.056C20.8048 27.0623 20.8033 27.074 20.7999 27.0978C20.7982 27.1095 20.7964 27.1218 20.7941 27.1376C20.792 27.1525 20.7893 27.1705 20.7867 27.1892L24.7465 27.7548ZM24.8026 27.13C24.8026 26.3715 24.5359 25.5158 23.7773 24.9C23.1109 24.3589 22.3255 24.2232 21.7435 24.1962L21.5577 28.1918C21.7497 28.2008 21.5403 28.2361 21.2563 28.0055C21.0985 27.8774 20.9691 27.7065 20.8884 27.5149C20.8123 27.3344 20.8026 27.1915 20.8026 27.13H24.8026ZM21.7404 24.196C21.4241 24.1818 21.1969 24.1498 21.0421 24.1148C20.8836 24.0789 20.8445 24.0496 20.8732 24.0666C20.912 24.0897 21.0294 24.1721 21.1299 24.3432C21.233 24.5188 21.2566 24.6825 21.2566 24.772H17.2566C17.2566 25.9597 17.8626 26.9316 18.8324 27.5069C19.6515 27.9928 20.6421 28.1507 21.5608 28.192L21.7404 24.196ZM21.2566 24.772C21.2566 24.804 21.2556 24.8297 21.2547 24.8473C21.2538 24.8651 21.2527 24.8784 21.2521 24.8856C21.2509 24.8983 21.2504 24.901 21.2524 24.8851C21.2544 24.8688 21.257 24.8498 21.2617 24.8147C21.2659 24.783 21.2714 24.7416 21.2771 24.6961L17.308 24.1999C17.3047 24.2264 17.3012 24.2525 17.2971 24.2838C17.2933 24.3117 17.288 24.3512 17.2833 24.3889C17.2785 24.427 17.2723 24.4792 17.2673 24.5369C17.2624 24.5929 17.2566 24.6755 17.2566 24.772H21.2566ZM21.2666 24.7694C21.3898 24.0122 21.5993 22.8789 21.8741 21.3216L17.935 20.6264C17.6698 22.1291 17.4473 23.3358 17.3186 24.1266L21.2666 24.7694ZM21.8657 21.3662C21.8808 21.2909 21.8929 21.2829 21.8755 21.3135C21.8666 21.3291 21.8518 21.3515 21.8297 21.377C21.8074 21.4027 21.7817 21.4268 21.754 21.4479C21.6958 21.4921 21.656 21.5024 21.6654 21.4997C21.6796 21.4957 21.746 21.48 21.8846 21.48V17.48C21.0354 17.48 20.1157 17.6687 19.3331 18.2636C18.5287 18.8752 18.1139 19.7292 17.9434 20.5818L21.8657 21.3662Z" fill="black" mask="url(#path-3-outside-1_404_53)"/>
</svg>
