<svg width="48" height="48" viewBox="0 0 48 48" fill="none" xmlns="http://www.w3.org/2000/svg">
<path fill-rule="evenodd" clip-rule="evenodd" d="M17.7327 14.6631L21.3141 11.0817L21.2388 21.2388L11.0817 21.3141L14.663 17.7329L4.58127 7.65115L7.651 4.58142L17.7327 14.6631Z" fill="white"/>
<path d="M21.3141 11.0817L22.3141 11.0891C22.3171 10.6833 22.0746 10.316 21.7003 10.1593C21.3259 10.0026 20.894 10.0877 20.607 10.3746L21.3141 11.0817ZM17.7327 14.6631L17.0256 15.3703C17.4161 15.7608 18.0493 15.7608 18.4398 15.3703L17.7327 14.6631ZM21.2388 21.2388L21.2462 22.2387C21.7927 22.2347 22.2347 21.7927 22.2387 21.2462L21.2388 21.2388ZM11.0817 21.3141L10.3746 20.607C10.0877 20.894 10.0026 21.3259 10.1593 21.7003C10.316 22.0746 10.6833 22.3171 11.0891 22.3141L11.0817 21.3141ZM14.663 17.7329L15.3701 18.44C15.5576 18.2524 15.663 17.9981 15.663 17.7329C15.663 17.4677 15.5576 17.2133 15.3701 17.0258L14.663 17.7329ZM4.58127 7.65115L3.87417 6.94404C3.48364 7.33457 3.48364 7.96773 3.87417 8.35826L4.58127 7.65115ZM7.651 4.58142L8.35811 3.87432C7.96758 3.48379 7.33442 3.48379 6.94389 3.87432L7.651 4.58142ZM20.607 10.3746L17.0256 13.956L18.4398 15.3703L22.0213 11.7888L20.607 10.3746ZM22.2387 21.2462L22.3141 11.0891L20.3142 11.0743L20.2388 21.2313L22.2387 21.2462ZM11.0891 22.3141L21.2462 22.2387L21.2313 20.2388L11.0743 20.3142L11.0891 22.3141ZM13.9559 17.0258L10.3746 20.607L11.7888 22.0213L15.3701 18.44L13.9559 17.0258ZM15.3701 17.0258L5.28838 6.94404L3.87417 8.35826L13.9559 18.44L15.3701 17.0258ZM5.28838 8.35826L8.35811 5.28853L6.94389 3.87432L3.87417 6.94404L5.28838 8.35826ZM6.94389 5.28853L17.0256 15.3703L18.4398 13.956L8.35811 3.87432L6.94389 5.28853Z" fill="black"/>
<path fill-rule="evenodd" clip-rule="evenodd" d="M30.2673 33.3369L26.6859 36.9183L26.7612 26.7612L36.9183 26.6859L33.337 30.2671L43.4187 40.3489L40.349 43.4186L30.2673 33.3369Z" fill="white"/>
<path d="M26.6859 36.9183L25.6859 36.9109C25.6829 37.3167 25.9254 37.684 26.2997 37.8407C26.6741 37.9974 27.106 37.9123 27.393 37.6254L26.6859 36.9183ZM30.2673 33.3369L30.9744 32.6297C30.5839 32.2392 29.9507 32.2392 29.5602 32.6297L30.2673 33.3369ZM26.7612 26.7612L26.7538 25.7613C26.2073 25.7653 25.7653 26.2073 25.7613 26.7538L26.7612 26.7612ZM36.9183 26.6859L37.6254 27.393C37.9123 27.106 37.9974 26.6741 37.8407 26.2997C37.684 25.9254 37.3167 25.6829 36.9109 25.6859L36.9183 26.6859ZM33.337 30.2671L32.6299 29.56C32.4424 29.7476 32.337 30.0019 32.337 30.2671C32.337 30.5323 32.4424 30.7867 32.6299 30.9742L33.337 30.2671ZM43.4187 40.3489L44.1258 41.056C44.5164 40.6654 44.5164 40.0323 44.1258 39.6417L43.4187 40.3489ZM40.349 43.4186L39.6419 44.1257C40.0324 44.5162 40.6656 44.5162 41.0561 44.1257L40.349 43.4186ZM27.393 37.6254L30.9744 34.044L29.5602 32.6297L25.9787 36.2112L27.393 37.6254ZM25.7613 26.7538L25.6859 36.9109L27.6858 36.9257L27.7612 26.7687L25.7613 26.7538ZM36.9109 25.6859L26.7538 25.7613L26.7687 27.7612L36.9257 27.6858L36.9109 25.6859ZM34.0441 30.9742L37.6254 27.393L36.2112 25.9787L32.6299 29.56L34.0441 30.9742ZM32.6299 30.9742L42.7116 41.056L44.1258 39.6417L34.0441 29.56L32.6299 30.9742ZM42.7116 39.6417L39.6419 42.7115L41.0561 44.1257L44.1258 41.056L42.7116 39.6417ZM41.0561 42.7115L30.9744 32.6297L29.5602 34.044L39.6419 44.1257L41.0561 42.7115Z" fill="black"/>
<path fill-rule="evenodd" clip-rule="evenodd" d="M33.3369 17.7327L36.9183 21.3141L26.7612 21.2388L26.6859 11.0817L30.2671 14.663L40.3489 4.58127L43.4186 7.651L33.3369 17.7327Z" fill="white"/>
<path d="M36.9183 21.3141L36.9109 22.3141C37.3167 22.3171 37.684 22.0746 37.8407 21.7003C37.9974 21.3259 37.9123 20.894 37.6254 20.607L36.9183 21.3141ZM33.3369 17.7327L32.6297 17.0256C32.2392 17.4161 32.2392 18.0493 32.6297 18.4398L33.3369 17.7327ZM26.7612 21.2388L25.7613 21.2462C25.7653 21.7927 26.2073 22.2347 26.7538 22.2387L26.7612 21.2388ZM26.6859 11.0817L27.393 10.3746C27.106 10.0877 26.6741 10.0026 26.2997 10.1593C25.9254 10.316 25.6829 10.6833 25.6859 11.0891L26.6859 11.0817ZM30.2671 14.663L29.56 15.3701C29.7476 15.5576 30.0019 15.663 30.2671 15.663C30.5323 15.663 30.7867 15.5576 30.9742 15.3701L30.2671 14.663ZM40.3489 4.58127L41.056 3.87417C40.6654 3.48364 40.0323 3.48364 39.6417 3.87417L40.3489 4.58127ZM43.4186 7.651L44.1257 8.35811C44.5162 7.96758 44.5162 7.33442 44.1257 6.94389L43.4186 7.651ZM37.6254 20.607L34.044 17.0256L32.6297 18.4398L36.2112 22.0213L37.6254 20.607ZM26.7538 22.2387L36.9109 22.3141L36.9257 20.3142L26.7687 20.2388L26.7538 22.2387ZM25.6859 11.0891L25.7613 21.2462L27.7612 21.2313L27.6858 11.0743L25.6859 11.0891ZM30.9742 13.9559L27.393 10.3746L25.9787 11.7888L29.56 15.3701L30.9742 13.9559ZM30.9742 15.3701L41.056 5.28838L39.6417 3.87417L29.56 13.9559L30.9742 15.3701ZM39.6417 5.28838L42.7115 8.35811L44.1257 6.94389L41.056 3.87417L39.6417 5.28838ZM42.7115 6.94389L32.6297 17.0256L34.044 18.4398L44.1257 8.35811L42.7115 6.94389Z" fill="black"/>
<path fill-rule="evenodd" clip-rule="evenodd" d="M14.6631 30.2673L11.0817 26.6859L21.2388 26.7612L21.3141 36.9183L17.7329 33.337L7.65115 43.4187L4.58142 40.349L14.6631 30.2673Z" fill="white"/>
<path d="M11.0817 26.6859L11.0891 25.6859C10.6833 25.6829 10.316 25.9254 10.1593 26.2997C10.0026 26.6741 10.0877 27.106 10.3746 27.393L11.0817 26.6859ZM14.6631 30.2673L15.3703 30.9744C15.7608 30.5839 15.7608 29.9507 15.3703 29.5602L14.6631 30.2673ZM21.2388 26.7612L22.2387 26.7538C22.2347 26.2073 21.7927 25.7653 21.2462 25.7613L21.2388 26.7612ZM21.3141 36.9183L20.607 37.6254C20.894 37.9123 21.3259 37.9974 21.7003 37.8407C22.0746 37.684 22.3171 37.3167 22.3141 36.9109L21.3141 36.9183ZM17.7329 33.337L18.44 32.6299C18.2524 32.4424 17.9981 32.337 17.7329 32.337C17.4677 32.337 17.2133 32.4424 17.0258 32.6299L17.7329 33.337ZM7.65115 43.4187L6.94404 44.1258C7.13158 44.3134 7.38593 44.4187 7.65115 44.4187C7.91636 44.4187 8.17072 44.3134 8.35825 44.1258L7.65115 43.4187ZM4.58142 40.349L3.87431 39.6419C3.48379 40.0324 3.48379 40.6656 3.87431 41.0561L4.58142 40.349ZM10.3746 27.393L13.956 30.9744L15.3703 29.5602L11.7888 25.9787L10.3746 27.393ZM21.2462 25.7613L11.0891 25.6859L11.0743 27.6858L21.2313 27.7612L21.2462 25.7613ZM22.3141 36.9109L22.2387 26.7538L20.2388 26.7687L20.3142 36.9257L22.3141 36.9109ZM17.0258 34.0441L20.607 37.6254L22.0213 36.2112L18.44 32.6299L17.0258 34.0441ZM17.0258 32.6299L6.94404 42.7116L8.35825 44.1258L18.44 34.0441L17.0258 32.6299ZM8.35825 42.7116L5.28853 39.6419L3.87431 41.0561L6.94404 44.1258L8.35825 42.7116ZM5.28853 41.0561L15.3703 30.9744L13.956 29.5602L3.87431 39.6419L5.28853 41.0561Z" fill="black"/>
</svg>
