<svg width="48" height="48" viewBox="0 0 48 48" fill="none" xmlns="http://www.w3.org/2000/svg">
<mask id="path-1-inside-1_514_495" fill="white">
<path fill-rule="evenodd" clip-rule="evenodd" d="M20 10C20.5523 10 21 10.4477 21 11V19.2414C21 19.7937 20.5523 20.2414 20 20.2414H19L19 30L28.7586 30V29C28.7586 28.4477 29.2063 28 29.7586 28H38C38.5523 28 39 28.4477 39 29V38C39 38.5523 38.5523 39 38 39H29.7586C29.2063 39 28.7586 38.5523 28.7586 38V37L18 37H13C12.4477 37 12 36.5523 12 36L12 20.2414H11C10.4477 20.2414 10 19.7937 10 19.2414V11C10 10.4477 10.4477 10 11 10H20Z"/>
</mask>
<path fill-rule="evenodd" clip-rule="evenodd" d="M20 10C20.5523 10 21 10.4477 21 11V19.2414C21 19.7937 20.5523 20.2414 20 20.2414H19L19 30L28.7586 30V29C28.7586 28.4477 29.2063 28 29.7586 28H38C38.5523 28 39 28.4477 39 29V38C39 38.5523 38.5523 39 38 39H29.7586C29.2063 39 28.7586 38.5523 28.7586 38V37L18 37H13C12.4477 37 12 36.5523 12 36L12 20.2414H11C10.4477 20.2414 10 19.7937 10 19.2414V11C10 10.4477 10.4477 10 11 10H20Z" fill="white"/>
<path d="M19 20.2414V18.2414H17V20.2414H19ZM19 30H17V32H19V30ZM28.7586 30V32H30.7586V30H28.7586ZM28.7586 37H30.7586V35H28.7586V37ZM18 37L18 35H18V37ZM12 36H10H12ZM12 20.2414H14V18.2414H12V20.2414ZM23 11C23 9.34315 21.6569 8 20 8V12C19.4477 12 19 11.5523 19 11H23ZM23 19.2414V11H19V19.2414H23ZM20 22.2414C21.6568 22.2414 23 20.8982 23 19.2414H19C19 18.6891 19.4477 18.2414 20 18.2414V22.2414ZM19 22.2414H20V18.2414H19V22.2414ZM21 30L21 20.2414H17L17 30H21ZM28.7586 28L19 28V32L28.7586 32V28ZM26.7586 29V30H30.7586V29H26.7586ZM29.7586 26C28.1018 26 26.7586 27.3431 26.7586 29H30.7586C30.7586 29.5523 30.3109 30 29.7586 30V26ZM38 26H29.7586V30H38V26ZM41 29C41 27.3432 39.6569 26 38 26V30C37.4477 30 37 29.5523 37 29H41ZM41 38V29H37V38H41ZM38 41C39.6569 41 41 39.6569 41 38H37C37 37.4477 37.4477 37 38 37V41ZM29.7586 41H38V37H29.7586V41ZM26.7586 38C26.7586 39.6568 28.1018 41 29.7586 41V37C30.3109 37 30.7586 37.4477 30.7586 38H26.7586ZM26.7586 37V38H30.7586V37H26.7586ZM18 39L28.7586 39V35L18 35L18 39ZM13 39H18V35H13V39ZM10 36C10 37.6569 11.3431 39 13 39V35C13.5523 35 14 35.4477 14 36H10ZM10 20.2414L10 36H14L14 20.2414H10ZM11 22.2414H12V18.2414H11V22.2414ZM8 19.2414C8 20.8982 9.34314 22.2414 11 22.2414V18.2414C11.5523 18.2414 12 18.6891 12 19.2414H8ZM8 11V19.2414H12V11H8ZM11 8C9.34315 8 8 9.34314 8 11H12C12 11.5523 11.5523 12 11 12V8ZM20 8H11V12H20V8Z" fill="black" mask="url(#path-1-inside-1_514_495)"/>
</svg>
